<mxfile host="app.diagrams.net" modified="2023-01-31T13:57:17.486Z" agent="5.0 (Windows NT 10.0; Win64; x64) AppleWebKit/537.36 (KHTML, like Gecko) Chrome/109.0.0.0 Safari/537.36 Edg/109.0.1518.70" etag="XYj0TfRE5SsLPwMt7MxC" version="20.8.13" type="github">
  <diagram name="Page-1" id="Xrk3vmYjyASCG5vWuM8d">
    <mxGraphModel dx="1387" dy="1164" grid="1" gridSize="10" guides="1" tooltips="1" connect="1" arrows="1" fold="1" page="0" pageScale="1" pageWidth="827" pageHeight="1169" math="0" shadow="0">
      <root>
        <mxCell id="0" />
        <mxCell id="1" parent="0" />
        <mxCell id="47yV9xnVyOMwIdODHVqi-27" value="" style="group" vertex="1" connectable="0" parent="1">
          <mxGeometry x="120" y="-80" width="540" height="380" as="geometry" />
        </mxCell>
        <mxCell id="47yV9xnVyOMwIdODHVqi-1" value="Client" style="shape=umlActor;verticalLabelPosition=bottom;verticalAlign=top;html=1;outlineConnect=0;" vertex="1" parent="47yV9xnVyOMwIdODHVqi-27">
          <mxGeometry x="80" width="40" height="80" as="geometry" />
        </mxCell>
        <mxCell id="47yV9xnVyOMwIdODHVqi-2" value="Business" style="shape=umlActor;verticalLabelPosition=bottom;verticalAlign=top;html=1;outlineConnect=0;" vertex="1" parent="47yV9xnVyOMwIdODHVqi-27">
          <mxGeometry x="80" y="140" width="40" height="80" as="geometry" />
        </mxCell>
        <mxCell id="47yV9xnVyOMwIdODHVqi-3" value="Regualar" style="shape=umlActor;verticalLabelPosition=bottom;verticalAlign=top;html=1;outlineConnect=0;" vertex="1" parent="47yV9xnVyOMwIdODHVqi-27">
          <mxGeometry y="140" width="40" height="80" as="geometry" />
        </mxCell>
        <mxCell id="47yV9xnVyOMwIdODHVqi-4" value="VIP" style="shape=umlActor;verticalLabelPosition=bottom;verticalAlign=top;html=1;outlineConnect=0;" vertex="1" parent="47yV9xnVyOMwIdODHVqi-27">
          <mxGeometry x="160" y="140" width="40" height="80" as="geometry" />
        </mxCell>
        <mxCell id="47yV9xnVyOMwIdODHVqi-5" value="" style="endArrow=none;html=1;rounded=0;exitX=0.5;exitY=0;exitDx=0;exitDy=0;exitPerimeter=0;endFill=0;" edge="1" parent="47yV9xnVyOMwIdODHVqi-27" source="47yV9xnVyOMwIdODHVqi-3">
          <mxGeometry width="50" height="50" relative="1" as="geometry">
            <mxPoint x="-20" y="110" as="sourcePoint" />
            <mxPoint x="20" y="120" as="targetPoint" />
          </mxGeometry>
        </mxCell>
        <mxCell id="47yV9xnVyOMwIdODHVqi-6" value="" style="endArrow=none;html=1;rounded=0;endFill=0;exitX=0.5;exitY=0;exitDx=0;exitDy=0;exitPerimeter=0;" edge="1" parent="47yV9xnVyOMwIdODHVqi-27" source="47yV9xnVyOMwIdODHVqi-2">
          <mxGeometry width="50" height="50" relative="1" as="geometry">
            <mxPoint x="100" y="130" as="sourcePoint" />
            <mxPoint x="99.9" y="120" as="targetPoint" />
          </mxGeometry>
        </mxCell>
        <mxCell id="47yV9xnVyOMwIdODHVqi-7" value="" style="endArrow=none;html=1;rounded=0;exitX=0.5;exitY=0;exitDx=0;exitDy=0;exitPerimeter=0;endFill=0;" edge="1" parent="47yV9xnVyOMwIdODHVqi-27">
          <mxGeometry width="50" height="50" relative="1" as="geometry">
            <mxPoint x="179.89999999999998" y="140" as="sourcePoint" />
            <mxPoint x="179.89999999999998" y="120" as="targetPoint" />
          </mxGeometry>
        </mxCell>
        <mxCell id="47yV9xnVyOMwIdODHVqi-8" value="" style="endArrow=none;html=1;rounded=0;endFill=0;" edge="1" parent="47yV9xnVyOMwIdODHVqi-27">
          <mxGeometry width="50" height="50" relative="1" as="geometry">
            <mxPoint x="20" y="120" as="sourcePoint" />
            <mxPoint x="180" y="120" as="targetPoint" />
          </mxGeometry>
        </mxCell>
        <mxCell id="47yV9xnVyOMwIdODHVqi-9" value="" style="endArrow=block;html=1;rounded=0;endFill=0;" edge="1" parent="47yV9xnVyOMwIdODHVqi-27">
          <mxGeometry width="50" height="50" relative="1" as="geometry">
            <mxPoint x="100" y="120" as="sourcePoint" />
            <mxPoint x="100" y="100" as="targetPoint" />
          </mxGeometry>
        </mxCell>
        <mxCell id="47yV9xnVyOMwIdODHVqi-17" style="edgeStyle=orthogonalEdgeStyle;rounded=0;orthogonalLoop=1;jettySize=auto;html=1;dashed=1;fontSize=8;endArrow=none;endFill=0;" edge="1" parent="47yV9xnVyOMwIdODHVqi-27" source="47yV9xnVyOMwIdODHVqi-10">
          <mxGeometry relative="1" as="geometry">
            <mxPoint x="390" y="140" as="targetPoint" />
          </mxGeometry>
        </mxCell>
        <mxCell id="47yV9xnVyOMwIdODHVqi-25" style="edgeStyle=orthogonalEdgeStyle;rounded=0;orthogonalLoop=1;jettySize=auto;html=1;fontSize=8;endArrow=none;endFill=0;" edge="1" parent="47yV9xnVyOMwIdODHVqi-27" source="47yV9xnVyOMwIdODHVqi-10" target="47yV9xnVyOMwIdODHVqi-1">
          <mxGeometry relative="1" as="geometry" />
        </mxCell>
        <mxCell id="47yV9xnVyOMwIdODHVqi-10" value="Withdraw Money" style="ellipse;whiteSpace=wrap;html=1;" vertex="1" parent="47yV9xnVyOMwIdODHVqi-27">
          <mxGeometry x="240" width="120" height="80" as="geometry" />
        </mxCell>
        <mxCell id="47yV9xnVyOMwIdODHVqi-12" style="edgeStyle=orthogonalEdgeStyle;rounded=0;orthogonalLoop=1;jettySize=auto;html=1;entryX=0.5;entryY=1;entryDx=0;entryDy=0;endArrow=open;endFill=0;dashed=1;" edge="1" parent="47yV9xnVyOMwIdODHVqi-27" source="47yV9xnVyOMwIdODHVqi-11" target="47yV9xnVyOMwIdODHVqi-10">
          <mxGeometry relative="1" as="geometry" />
        </mxCell>
        <mxCell id="47yV9xnVyOMwIdODHVqi-11" value="Display Error Message" style="ellipse;whiteSpace=wrap;html=1;" vertex="1" parent="47yV9xnVyOMwIdODHVqi-27">
          <mxGeometry x="255" y="100" width="90" height="60" as="geometry" />
        </mxCell>
        <mxCell id="47yV9xnVyOMwIdODHVqi-13" value="&amp;lt;&amp;lt;Return Card&amp;gt;&amp;gt;" style="text;html=1;align=center;verticalAlign=middle;resizable=0;points=[];autosize=1;strokeColor=none;fillColor=none;rotation=0;fontSize=8;" vertex="1" parent="47yV9xnVyOMwIdODHVqi-27">
          <mxGeometry x="300" y="80" width="90" height="20" as="geometry" />
        </mxCell>
        <mxCell id="47yV9xnVyOMwIdODHVqi-14" value="Update Account" style="ellipse;whiteSpace=wrap;html=1;" vertex="1" parent="47yV9xnVyOMwIdODHVqi-27">
          <mxGeometry x="420" y="100" width="120" height="80" as="geometry" />
        </mxCell>
        <mxCell id="47yV9xnVyOMwIdODHVqi-16" style="edgeStyle=orthogonalEdgeStyle;rounded=0;orthogonalLoop=1;jettySize=auto;html=1;entryX=0;entryY=0.5;entryDx=0;entryDy=0;dashed=1;fontSize=8;endArrow=open;endFill=0;" edge="1" parent="47yV9xnVyOMwIdODHVqi-27" source="47yV9xnVyOMwIdODHVqi-15" target="47yV9xnVyOMwIdODHVqi-14">
          <mxGeometry relative="1" as="geometry" />
        </mxCell>
        <mxCell id="47yV9xnVyOMwIdODHVqi-26" style="edgeStyle=orthogonalEdgeStyle;rounded=0;orthogonalLoop=1;jettySize=auto;html=1;fontSize=8;endArrow=none;endFill=0;" edge="1" parent="47yV9xnVyOMwIdODHVqi-27" source="47yV9xnVyOMwIdODHVqi-15">
          <mxGeometry relative="1" as="geometry">
            <mxPoint x="120" y="40" as="targetPoint" />
            <Array as="points">
              <mxPoint x="210" y="240" />
              <mxPoint x="210" y="40" />
            </Array>
          </mxGeometry>
        </mxCell>
        <mxCell id="47yV9xnVyOMwIdODHVqi-15" value="Deposit Money" style="ellipse;whiteSpace=wrap;html=1;" vertex="1" parent="47yV9xnVyOMwIdODHVqi-27">
          <mxGeometry x="240" y="200" width="120" height="80" as="geometry" />
        </mxCell>
        <mxCell id="47yV9xnVyOMwIdODHVqi-18" value="&amp;lt;&amp;lt;Update Balance&amp;gt;&amp;gt;" style="text;html=1;align=center;verticalAlign=middle;resizable=0;points=[];autosize=1;strokeColor=none;fillColor=none;rotation=90;fontSize=8;" vertex="1" parent="47yV9xnVyOMwIdODHVqi-27">
          <mxGeometry x="350" y="80" width="100" height="20" as="geometry" />
        </mxCell>
        <mxCell id="47yV9xnVyOMwIdODHVqi-19" value="&amp;lt;&amp;lt;Update Balance&amp;gt;&amp;gt;" style="text;html=1;align=center;verticalAlign=middle;resizable=0;points=[];autosize=1;strokeColor=none;fillColor=none;rotation=90;fontSize=8;" vertex="1" parent="47yV9xnVyOMwIdODHVqi-27">
          <mxGeometry x="350" y="180" width="100" height="20" as="geometry" />
        </mxCell>
        <mxCell id="47yV9xnVyOMwIdODHVqi-23" style="edgeStyle=orthogonalEdgeStyle;rounded=0;orthogonalLoop=1;jettySize=auto;html=1;entryX=0.5;entryY=1;entryDx=0;entryDy=0;fontSize=8;endArrow=block;endFill=0;" edge="1" parent="47yV9xnVyOMwIdODHVqi-27" source="47yV9xnVyOMwIdODHVqi-20" target="47yV9xnVyOMwIdODHVqi-15">
          <mxGeometry relative="1" as="geometry" />
        </mxCell>
        <mxCell id="47yV9xnVyOMwIdODHVqi-20" value="Deposit Cash" style="ellipse;whiteSpace=wrap;html=1;" vertex="1" parent="47yV9xnVyOMwIdODHVqi-27">
          <mxGeometry x="190" y="320" width="90" height="60" as="geometry" />
        </mxCell>
        <mxCell id="47yV9xnVyOMwIdODHVqi-24" style="edgeStyle=orthogonalEdgeStyle;rounded=0;orthogonalLoop=1;jettySize=auto;html=1;fontSize=8;endArrow=none;endFill=0;" edge="1" parent="47yV9xnVyOMwIdODHVqi-27" source="47yV9xnVyOMwIdODHVqi-21">
          <mxGeometry relative="1" as="geometry">
            <mxPoint x="300" y="300" as="targetPoint" />
            <Array as="points">
              <mxPoint x="360" y="300" />
            </Array>
          </mxGeometry>
        </mxCell>
        <mxCell id="47yV9xnVyOMwIdODHVqi-21" value="Deposit Check" style="ellipse;whiteSpace=wrap;html=1;" vertex="1" parent="47yV9xnVyOMwIdODHVqi-27">
          <mxGeometry x="320" y="320" width="90" height="60" as="geometry" />
        </mxCell>
      </root>
    </mxGraphModel>
  </diagram>
</mxfile>
